<svg id="visual" viewBox="0 0 900 600" width="900" height="600" xmlns="http://www.w3.org/2000/svg" xmlns:xlink="http://www.w3.org/1999/xlink" version="1.1"><g fill="#A7233A"><circle r="69" cx="179" cy="194"></circle><circle r="9" cx="806" cy="475"></circle><circle r="22" cx="549" cy="354"></circle><circle r="66" cx="394" cy="465"></circle><circle r="55" cx="835" cy="141"></circle><circle r="44" cx="414" cy="117"></circle><circle r="66" cx="555" cy="2"></circle><circle r="57" cx="27" cy="200"></circle><circle r="49" cx="674" cy="201"></circle><circle r="46" cx="756" cy="326"></circle><circle r="12" cx="112" cy="39"></circle><circle r="13" cx="760" cy="16"></circle><circle r="40" cx="53" cy="343"></circle><circle r="10" cx="558" cy="589"></circle><circle r="42" cx="28" cy="547"></circle><circle r="25" cx="239" cy="594"></circle><circle r="21" cx="351" cy="297"></circle><circle r="46" cx="225" cy="387"></circle><circle r="57" cx="896" cy="296"></circle><circle r="55" cx="263" cy="9"></circle><circle r="61" cx="673" cy="439"></circle><circle r="32" cx="720" cy="591"></circle><circle r="45" cx="503" cy="222"></circle></g></svg>