<svg id="visual" viewBox="0 0 540 960" width="540" height="960" xmlns="http://www.w3.org/2000/svg" xmlns:xlink="http://www.w3.org/1999/xlink" version="1.1"><path d="M0 509L18 516.2C36 523.3 72 537.7 108 541.3C144 545 180 538 216 534.2C252 530.3 288 529.7 324 526.5C360 523.3 396 517.7 432 518.2C468 518.7 504 525.3 522 528.7L540 532L540 961L522 961C504 961 468 961 432 961C396 961 360 961 324 961C288 961 252 961 216 961C180 961 144 961 108 961C72 961 36 961 18 961L0 961Z" fill="#258C25" stroke-linecap="round" stroke-linejoin="miter"></path></svg>