<svg id="visual" viewBox="0 0 1900 1080" width="1900" height="1080" xmlns="http://www.w3.org/2000/svg" xmlns:xlink="http://www.w3.org/1999/xlink" version="1.1"><path d="M0 869L39.7 853.3C79.3 837.7 158.7 806.3 237.8 753.5C317 700.7 396 626.3 475.2 606.7C554.3 587 633.7 622 712.8 657C792 692 871 727 950.2 682.5C1029.3 638 1108.7 514 1187.8 501.2C1267 488.3 1346 586.7 1425.2 601.8C1504.3 617 1583.7 549 1662.8 530.3C1742 511.7 1821 542.3 1860.5 557.7L1900 573L1900 1081L1860.5 1081C1821 1081 1742 1081 1662.8 1081C1583.7 1081 1504.3 1081 1425.2 1081C1346 1081 1267 1081 1187.8 1081C1108.7 1081 1029.3 1081 950.2 1081C871 1081 792 1081 712.8 1081C633.7 1081 554.3 1081 475.2 1081C396 1081 317 1081 237.8 1081C158.7 1081 79.3 1081 39.7 1081L0 1081Z" fill="#258C25" stroke-linecap="round" stroke-linejoin="miter"></path></svg>