<svg id="visual" viewBox="0 0 1900 1080" width="1900" height="1080" xmlns="http://www.w3.org/2000/svg" xmlns:xlink="http://www.w3.org/1999/xlink" version="1.1"><path d="M0 387L39.7 435.2C79.3 483.3 158.7 579.7 237.8 596C317 612.3 396 548.7 475.2 512.5C554.3 476.3 633.7 467.7 712.8 496.3C792 525 871 591 950.2 655.3C1029.3 719.7 1108.7 782.3 1187.8 747.8C1267 713.3 1346 581.7 1425.2 565.2C1504.3 548.7 1583.7 647.3 1662.8 682.3C1742 717.3 1821 688.7 1860.5 674.3L1900 660L1900 1081L1860.5 1081C1821 1081 1742 1081 1662.8 1081C1583.7 1081 1504.3 1081 1425.2 1081C1346 1081 1267 1081 1187.8 1081C1108.7 1081 1029.3 1081 950.2 1081C871 1081 792 1081 712.8 1081C633.7 1081 554.3 1081 475.2 1081C396 1081 317 1081 237.8 1081C158.7 1081 79.3 1081 39.7 1081L0 1081Z" fill="#258C25" stroke-linecap="round" stroke-linejoin="miter"></path></svg>