<svg id="visual" viewBox="0 0 1900 1080" width="1900" height="1080" xmlns="http://www.w3.org/2000/svg" xmlns:xlink="http://www.w3.org/1999/xlink" version="1.1"><path d="M0 711L39.7 731.7C79.3 752.3 158.7 793.7 237.8 803.7C317 813.7 396 792.3 475.2 748.3C554.3 704.3 633.7 637.7 712.8 597.8C792 558 871 545 950.2 532.2C1029.3 519.3 1108.7 506.7 1187.8 508.2C1267 509.7 1346 525.3 1425.2 547C1504.3 568.7 1583.7 596.3 1662.8 617C1742 637.7 1821 651.3 1860.5 658.2L1900 665L1900 1081L1860.5 1081C1821 1081 1742 1081 1662.8 1081C1583.7 1081 1504.3 1081 1425.2 1081C1346 1081 1267 1081 1187.8 1081C1108.7 1081 1029.3 1081 950.2 1081C871 1081 792 1081 712.8 1081C633.7 1081 554.3 1081 475.2 1081C396 1081 317 1081 237.8 1081C158.7 1081 79.3 1081 39.7 1081L0 1081Z" fill="#258C25" stroke-linecap="round" stroke-linejoin="miter"></path></svg>